<svg xmlns="http://www.w3.org/2000/svg" viewBox="0 0 461.3 461.3"><path d="M458.2 201L407.6 98.6c-8.7-17.9-26.6-29.2-47.1-29.2H100.4c-20.5 0-37.9 10.8-47.1 29.2L2.6 200.4C1 203.5 0 207.1 0 210.2v137.7c0 24.1 19.5 44 44 44h373.2c24.1 0 44-19.5 44-44V210.7c-.4-3.6-1.4-7.2-3-9.7zm-138.7-12.3c-10.2 0-18.9 7.2-21.5 17.4-.5 2-12.3 56.8-68.1 56.8-54.3 0-66.6-50.7-68.1-56.8-2-10.2-10.8-17.4-21.5-17.4h-83L92.7 118c1.5-2.6 4.6-5.1 7.7-5.1h260.1c3.1 0 6.1 1.5 7.7 5.1l34.8 70.7h-83.5z" fill="#7e5aff"/></svg>