<svg version="1.1" id="Capa_1" xmlns="http://www.w3.org/2000/svg" x="0" y="0" viewBox="0 0 512 512" xml:space="preserve"><style>.st0{fill:#7e5aff}</style><path class="st0" d="M256 0C114.8 0 0 114.8 0 256s114.8 256 256 256 256-114.8 256-256S397.2 0 256 0zm0 474.6c-120.6 0-218.6-98.1-218.6-218.6S135.4 37.4 256 37.4s218.6 98 218.6 218.6c0 120.5-98.1 218.6-218.6 218.6z"/><path class="st0" d="M154.3 274.7c0 10.3 8.4 18.7 18.7 18.7h99.7c10.3 0 18.7-8.4 18.7-18.7V143.9c0-10.3-8.4-18.7-18.7-18.7-10.3 0-18.7 8.4-18.7 18.7V256h-81c-10.3 0-18.7 8.4-18.7 18.7z"/></svg>