<?xml version="1.0" encoding="utf-8"?>
<!-- Generator: Adobe Illustrator 23.1.0, SVG Export Plug-In . SVG Version: 6.00 Build 0)  -->
<svg version="1.1" id="Capa_1" xmlns="http://www.w3.org/2000/svg" xmlns:xlink="http://www.w3.org/1999/xlink" x="0px" y="0px"
	 viewBox="0 0 461.3 461.3" style="enable-background:new 0 0 461.3 461.3;" xml:space="preserve">
<style type="text/css">
	.st0{fill:#7E5AFF;}
</style>
<g>
	<g>
		<path class="st0" d="M458.2,201L407.6,98.6c-8.7-17.9-26.6-29.2-47.1-29.2H100.4c-20.5,0-37.9,10.8-47.1,29.2L2.6,200.4
			C1,203.5,0,207.1,0,210.2v137.7c0,24.1,19.5,44,44,44h373.2c24.1,0,44-19.5,44-44V210.7C460.8,207.1,459.8,203.5,458.2,201z
			 M319.5,188.7c-10.2,0-18.9,7.2-21.5,17.4c-0.5,2-12.3,56.8-68.1,56.8c-54.3,0-66.6-50.7-68.1-56.8c-2-10.2-10.8-17.4-21.5-17.4
			H57.3L92.7,118c1.5-2.6,4.6-5.1,7.7-5.1h260.1c3.1,0,6.1,1.5,7.7,5.1l34.8,70.7L319.5,188.7L319.5,188.7z"/>
	</g>
</g>
</svg>
