<?xml version="1.0" encoding="iso-8859-1"?>
<!-- Generator: Adobe Illustrator 19.0.0, SVG Export Plug-In . SVG Version: 6.00 Build 0)  -->
<svg version="1.1" id="Capa_1" xmlns="http://www.w3.org/2000/svg" xmlns:xlink="http://www.w3.org/1999/xlink" x="0px" y="0px"
	 viewBox="0 0 461.312 461.312" style="enable-background:new 0 0 461.312 461.312;" xml:space="preserve">
<g>
	<g>
		<path d="M458.24,200.96l-50.688-102.4c-8.704-17.92-26.624-29.184-47.104-29.184H100.352c-20.48,0-37.888,10.752-47.104,29.184
			L2.56,200.448C1.024,203.52,0,207.104,0,210.176v137.728c0,24.064,19.456,44.032,44.032,44.032H417.28
			c24.064,0,44.032-19.456,44.032-44.032V210.688C460.8,207.104,459.776,203.52,458.24,200.96z M319.488,188.672
			c-10.24,0-18.944,7.168-21.504,17.408c-0.512,2.048-12.288,56.832-68.096,56.832c-54.272,0-66.56-50.688-68.096-56.832
			c-2.048-10.24-10.752-17.408-21.504-17.408H57.344l35.328-70.656c1.536-2.56,4.608-5.12,7.68-5.12h260.096
			c3.072,0,6.144,1.536,7.68,5.12l34.816,70.656H319.488z"/>
	</g>
</g>
<g>
</g>
<g>
</g>
<g>
</g>
<g>
</g>
<g>
</g>
<g>
</g>
<g>
</g>
<g>
</g>
<g>
</g>
<g>
</g>
<g>
</g>
<g>
</g>
<g>
</g>
<g>
</g>
<g>
</g>
</svg>
